<svg width="50" height="19" viewBox="0 0 50 19" fill="none" xmlns="http://www.w3.org/2000/svg">
<path d="M1.32 11C1.24 11 1.172 10.976 1.116 10.928C1.068 10.872 1.044 10.804 1.044 10.724V2.888C1.044 2.8 1.068 2.732 1.116 2.684C1.172 2.628 1.24 2.6 1.32 2.6H1.92C2.016 2.6 2.088 2.624 2.136 2.672C2.184 2.72 2.212 2.76 2.22 2.792L4.764 7.64L7.32 2.792C7.336 2.76 7.364 2.72 7.404 2.672C7.452 2.624 7.524 2.6 7.62 2.6H8.208C8.296 2.6 8.364 2.628 8.412 2.684C8.468 2.732 8.496 2.8 8.496 2.888V10.724C8.496 10.804 8.468 10.872 8.412 10.928C8.364 10.976 8.296 11 8.208 11H7.62C7.54 11 7.472 10.976 7.416 10.928C7.368 10.872 7.344 10.804 7.344 10.724V4.82L5.34 8.732C5.308 8.812 5.26 8.876 5.196 8.924C5.132 8.964 5.052 8.984 4.956 8.984H4.584C4.48 8.984 4.396 8.964 4.332 8.924C4.276 8.876 4.228 8.812 4.188 8.732L2.184 4.82V10.724C2.184 10.804 2.156 10.872 2.1 10.928C2.052 10.976 1.988 11 1.908 11H1.32ZM11.5073 13.28C11.4433 13.28 11.3873 13.256 11.3393 13.208C11.2913 13.16 11.2673 13.104 11.2673 13.04C11.2673 13.008 11.2713 12.976 11.2793 12.944C11.2873 12.912 11.3033 12.872 11.3273 12.824L12.2513 10.628L9.95934 5.216C9.91934 5.12 9.89934 5.052 9.89934 5.012C9.89934 4.94 9.92334 4.88 9.97134 4.832C10.0193 4.784 10.0793 4.76 10.1513 4.76H10.7393C10.8193 4.76 10.8833 4.78 10.9313 4.82C10.9793 4.86 11.0113 4.908 11.0273 4.964L12.8513 9.332L14.7233 4.964C14.7473 4.908 14.7793 4.86 14.8193 4.82C14.8673 4.78 14.9353 4.76 15.0233 4.76H15.5873C15.6593 4.76 15.7193 4.784 15.7673 4.832C15.8153 4.88 15.8393 4.936 15.8393 5C15.8393 5.04 15.8193 5.112 15.7793 5.216L12.3713 13.076C12.3473 13.132 12.3113 13.18 12.2633 13.22C12.2233 13.26 12.1593 13.28 12.0713 13.28H11.5073ZM17.4567 11C17.3687 11 17.3007 10.976 17.2527 10.928C17.2047 10.872 17.1807 10.804 17.1807 10.724V2.888C17.1807 2.8 17.2047 2.732 17.2527 2.684C17.3007 2.628 17.3687 2.6 17.4567 2.6H20.5047C21.0967 2.6 21.6087 2.696 22.0407 2.888C22.4807 3.08 22.8207 3.368 23.0607 3.752C23.3007 4.128 23.4207 4.6 23.4207 5.168C23.4207 5.736 23.3007 6.208 23.0607 6.584C22.8207 6.96 22.4807 7.244 22.0407 7.436C21.6087 7.628 21.0967 7.724 20.5047 7.724H18.3807V10.724C18.3807 10.804 18.3527 10.872 18.2967 10.928C18.2487 10.976 18.1807 11 18.0927 11H17.4567ZM18.3687 6.716H20.4447C21.0367 6.716 21.4807 6.584 21.7767 6.32C22.0727 6.056 22.2207 5.672 22.2207 5.168C22.2207 4.672 22.0767 4.288 21.7887 4.016C21.5007 3.744 21.0527 3.608 20.4447 3.608H18.3687V6.716ZM26.3468 11.12C25.9468 11.12 25.5828 11.04 25.2548 10.88C24.9268 10.72 24.6628 10.504 24.4628 10.232C24.2628 9.96 24.1628 9.652 24.1628 9.308C24.1628 8.756 24.3868 8.316 24.8348 7.988C25.2828 7.66 25.8668 7.444 26.5868 7.34L28.3748 7.088V6.74C28.3748 6.356 28.2628 6.056 28.0388 5.84C27.8228 5.624 27.4668 5.516 26.9708 5.516C26.6108 5.516 26.3188 5.588 26.0948 5.732C25.8788 5.876 25.7268 6.06 25.6388 6.284C25.5908 6.404 25.5068 6.464 25.3868 6.464H24.8468C24.7588 6.464 24.6908 6.44 24.6428 6.392C24.6028 6.336 24.5828 6.272 24.5828 6.2C24.5828 6.08 24.6268 5.932 24.7148 5.756C24.8108 5.58 24.9548 5.408 25.1468 5.24C25.3388 5.072 25.5828 4.932 25.8788 4.82C26.1828 4.7 26.5508 4.64 26.9828 4.64C27.4628 4.64 27.8668 4.704 28.1948 4.832C28.5228 4.952 28.7788 5.116 28.9628 5.324C29.1548 5.532 29.2908 5.768 29.3708 6.032C29.4588 6.296 29.5028 6.564 29.5028 6.836V10.724C29.5028 10.804 29.4748 10.872 29.4188 10.928C29.3708 10.976 29.3068 11 29.2268 11H28.6748C28.5868 11 28.5188 10.976 28.4708 10.928C28.4228 10.872 28.3988 10.804 28.3988 10.724V10.208C28.2948 10.352 28.1548 10.496 27.9788 10.64C27.8028 10.776 27.5828 10.892 27.3188 10.988C27.0548 11.076 26.7308 11.12 26.3468 11.12ZM26.5988 10.22C26.9268 10.22 27.2268 10.152 27.4988 10.016C27.7708 9.872 27.9828 9.652 28.1348 9.356C28.2948 9.06 28.3748 8.688 28.3748 8.24V7.904L26.9828 8.108C26.4148 8.188 25.9868 8.324 25.6988 8.516C25.4108 8.7 25.2668 8.936 25.2668 9.224C25.2668 9.448 25.3308 9.636 25.4588 9.788C25.5948 9.932 25.7628 10.04 25.9628 10.112C26.1708 10.184 26.3828 10.22 26.5988 10.22ZM31.5038 11C31.4238 11 31.3558 10.976 31.2998 10.928C31.2518 10.872 31.2278 10.804 31.2278 10.724V5.036C31.2278 4.956 31.2518 4.892 31.2998 4.844C31.3558 4.788 31.4238 4.76 31.5038 4.76H32.0678C32.1478 4.76 32.2118 4.788 32.2598 4.844C32.3158 4.892 32.3438 4.956 32.3438 5.036V5.564C32.5518 5.292 32.8118 5.072 33.1238 4.904C33.4438 4.728 33.8518 4.64 34.3478 4.64C34.8678 4.64 35.3078 4.756 35.6678 4.988C36.0358 5.212 36.3118 5.528 36.4958 5.936C36.6798 6.336 36.7718 6.804 36.7718 7.34V10.724C36.7718 10.804 36.7478 10.872 36.6998 10.928C36.6518 10.976 36.5878 11 36.5078 11H35.9078C35.8278 11 35.7598 10.976 35.7038 10.928C35.6558 10.872 35.6318 10.804 35.6318 10.724V7.4C35.6318 6.84 35.4958 6.404 35.2238 6.092C34.9518 5.772 34.5518 5.612 34.0238 5.612C33.5278 5.612 33.1278 5.772 32.8238 6.092C32.5278 6.404 32.3798 6.84 32.3798 7.4V10.724C32.3798 10.804 32.3518 10.872 32.2958 10.928C32.2478 10.976 32.1838 11 32.1038 11H31.5038ZM40.9892 11.12C40.1652 11.12 39.5092 10.868 39.0212 10.364C38.5332 9.852 38.2652 9.156 38.2172 8.276C38.2092 8.172 38.2052 8.04 38.2052 7.88C38.2052 7.712 38.2092 7.576 38.2172 7.472C38.2492 6.904 38.3812 6.408 38.6132 5.984C38.8452 5.552 39.1612 5.22 39.5612 4.988C39.9692 4.756 40.4452 4.64 40.9892 4.64C41.5972 4.64 42.1052 4.768 42.5132 5.024C42.9292 5.28 43.2452 5.644 43.4612 6.116C43.6772 6.588 43.7852 7.14 43.7852 7.772V7.976C43.7852 8.064 43.7572 8.132 43.7012 8.18C43.6532 8.228 43.5892 8.252 43.5092 8.252H39.3572C39.3572 8.26 39.3572 8.276 39.3572 8.3C39.3572 8.324 39.3572 8.344 39.3572 8.36C39.3732 8.688 39.4452 8.996 39.5732 9.284C39.7012 9.564 39.8852 9.792 40.1252 9.968C40.3652 10.144 40.6532 10.232 40.9892 10.232C41.2772 10.232 41.5172 10.188 41.7092 10.1C41.9012 10.012 42.0572 9.916 42.1772 9.812C42.2972 9.7 42.3772 9.616 42.4172 9.56C42.4892 9.456 42.5452 9.396 42.5852 9.38C42.6252 9.356 42.6892 9.344 42.7772 9.344H43.3532C43.4332 9.344 43.4972 9.368 43.5452 9.416C43.6012 9.456 43.6252 9.516 43.6172 9.596C43.6092 9.716 43.5452 9.864 43.4252 10.04C43.3052 10.208 43.1332 10.376 42.9092 10.544C42.6852 10.712 42.4132 10.852 42.0932 10.964C41.7732 11.068 41.4052 11.12 40.9892 11.12ZM39.3572 7.424H42.6452V7.388C42.6452 7.028 42.5772 6.708 42.4412 6.428C42.3132 6.148 42.1252 5.928 41.8772 5.768C41.6292 5.6 41.3332 5.516 40.9892 5.516C40.6452 5.516 40.3492 5.6 40.1012 5.768C39.8612 5.928 39.6772 6.148 39.5492 6.428C39.4212 6.708 39.3572 7.028 39.3572 7.388V7.424ZM45.508 11C45.428 11 45.36 10.976 45.304 10.928C45.256 10.872 45.232 10.804 45.232 10.724V2.756C45.232 2.676 45.256 2.612 45.304 2.564C45.36 2.508 45.428 2.48 45.508 2.48H46.072C46.16 2.48 46.228 2.508 46.276 2.564C46.324 2.612 46.348 2.676 46.348 2.756V10.724C46.348 10.804 46.324 10.872 46.276 10.928C46.228 10.976 46.16 11 46.072 11H45.508Z" fill="#DC3545"/>
<line x1="11" y1="18.5" x2="39" y2="18.5" stroke="#DC3545"/>
</svg>
